<svg xmlns="http://www.w3.org/2000/svg" viewBox="0 0 24 24">
  <path d="M12 2C6.48 2 2 6.58 2 12.25c0 4.53 2.87 8.37 6.84 9.73.5.1.68-.22.68-.49 0-.24-.01-.87-.01-1.72-2.78.62-3.37-1.37-3.37-1.37-.45-1.18-1.11-1.5-1.11-1.5-.91-.64.07-.62.07-.62 1 .07 1.53 1.06 1.53 1.06.9 1.57 2.36 1.12 2.94.85.09-.67.35-1.12.63-1.38-2.22-.26-4.55-1.14-4.55-5.05 0-1.12.39-2.03 1.03-2.75-.1-.26-.45-1.3.1-2.71 0 0 .84-.28 2.75 1.05a9.36 9.36 0 0 1 5 0c1.91-1.33 2.75-1.05 2.75-1.05.55 1.41.2 2.45.1 2.71.64.72 1.03 1.63 1.03 2.75 0 3.92-2.34 4.79-4.57 5.04.36.32.68.94.68 1.9 0 1.37-.01 2.48-.01 2.82 0 .27.18.6.69.49A10.03 10.03 0 0 0 22 12.25C22 6.58 17.52 2 12 2z"/>
</svg>
