<svg xmlns="http://www.w3.org/2000/svg" width="24" height="24" viewBox="0 0 24 24" fill="none" shape-rendering="crispEdges">
  <style>
    .pet { animation: muse 2.4s steps(1, end) infinite; }
    .spark { animation: spark 0.8s steps(1, end) infinite; }
    @keyframes muse {
      0%, 100% { transform: translateY(0); }
      50% { transform: translateY(-0.8px); }
    }
    @keyframes spark {
      0%, 100% { opacity: 1; }
      50% { opacity: 0.25; }
    }
    @media (prefers-reduced-motion: reduce) {
      .pet, .spark { animation: none; }
    }
  </style>
  <rect x="7" y="19" width="3" height="3" fill="#2fa8ea"/>
  <rect x="14" y="19" width="3" height="3" fill="#2fa8ea"/>
  <g class="pet">
    <g fill="#dbeffe" opacity="0.55">
      <rect x="11.5" y="0.5" width="1" height="3"/>
      <rect x="10.5" y="1.5" width="3" height="1"/>
    </g>
    <rect x="11.5" y="4" width="1" height="3" fill="#67cdf9"/>
    <rect x="5" y="6" width="14" height="13" fill="#67cdf9"/>
    <rect x="4" y="7" width="16" height="11" fill="#67cdf9"/>
    <rect x="5" y="6" width="7" height="1" fill="#a8e2fd"/>
    <rect x="4" y="7" width="1" height="6" fill="#a8e2fd"/>
    <rect x="5" y="18" width="14" height="1" fill="#2fa8ea"/>
    <rect x="19" y="12" width="1" height="6" fill="#2fa8ea"/>
    <rect x="2" y="9" width="2" height="4" fill="#a8e2fd"/>
    <rect x="20" y="9" width="2" height="4" fill="#2fa8ea"/>
    <!-- 眼睛上移变短 = 抬头看灵感星 -->
    <rect x="8" y="9" width="2.5" height="3" fill="#082f49"/>
    <rect x="13.5" y="9" width="2.5" height="3" fill="#082f49"/>
  </g>
  <!-- 灵感像素星:头顶右侧快速闪烁 -->
  <g class="spark" fill="#dbeffe">
    <rect x="20.5" y="0.5" width="1" height="3"/>
    <rect x="19.5" y="1.5" width="3" height="1"/>
  </g>
</svg>
